<svg xmlns="http://www.w3.org/2000/svg" width="259" height="22" viewBox="0 0 259 22"><defs><style>.a,.b{fill:#ffc72c;}.a{font-size:18px;font-family:Montserrat-Bold, Montserrat;font-weight:700;letter-spacing:-0.042em;}</style></defs><g transform="translate(-85 -16)"><text class="a" transform="translate(158 33)"><tspan x="0" y="0">jornada de integração</tspan></text><g transform="translate(85 16)"><path class="b" d="M2.962,0A2.961,2.961,0,1,1,0,2.961,2.965,2.965,0,0,1,2.962,0Z" transform="translate(58.076 8.81)"/><path class="b" d="M2.962,0A2.961,2.961,0,1,1,0,2.961,2.965,2.965,0,0,1,2.962,0Z" transform="translate(22.607)"/><path class="b" d="M4.167,10.765H.67A.675.675,0,0,1,0,10.1V.637A.641.641,0,0,1,.67,0h3.5a.627.627,0,0,1,.64.607V10.1A.659.659,0,0,1,4.167,10.765Z" transform="translate(23.159 7.891)"/><path class="b" d="M4.167,0H.67A.675.675,0,0,0,0,.666V17.99a.669.669,0,0,0,.64.666h3.5a.675.675,0,0,0,.67-.666V.666A.669.669,0,0,0,4.167,0Z" transform="translate(15.628)"/><path class="b" d="M3.707,11.194l1.1-1.717V.666A.649.649,0,0,0,4.168,0H.67A.675.675,0,0,0,0,.666V17.99a.659.659,0,0,0,.64.666H4.153a.675.675,0,0,0,.67-.666V14.377L3.736,12.733A1.322,1.322,0,0,1,3.707,11.194Z" transform="translate(45.262)"/><path class="b" d="M9.55,12.645,5.4,6.989,9.222,1.051A.9.9,0,0,0,9.475.5c0-.281-.164-.5-.58-.5H5.129a.928.928,0,0,0-.938.385L.62,5.848.128,6.6a.6.6,0,0,0,0,.74l.491.74L4.073,13.3a.961.961,0,0,0,.938.385H9.222c.417,0,.58-.222.58-.5A.908.908,0,0,0,9.55,12.645Z" transform="translate(49.465 4.96)"/><path class="b" d="M7.531,4.457H7.62a2.972,2.972,0,0,1,2.054.829,3.248,3.248,0,0,0,.342.311,1.021,1.021,0,0,0,.863.3.96.96,0,0,0,.417-.267l1.816-2.265a.76.76,0,0,0,.238-.74,1.158,1.158,0,0,0-.253-.385,4.86,4.86,0,0,0-1-.829A8.534,8.534,0,0,0,7.338,0,7.082,7.082,0,0,0,0,7.2v.03a7.086,7.086,0,0,0,7.353,7.2,8.605,8.605,0,0,0,4.763-1.407,4.938,4.938,0,0,0,1-.829.833.833,0,0,0,.253-.385.8.8,0,0,0-.238-.74L11.3,8.795a.881.881,0,0,0-.417-.266,1,1,0,0,0-.863.3c-.1.089-.238.207-.342.311a2.908,2.908,0,0,1-2.054.829H7.531a2.754,2.754,0,0,1,0-5.508Z" transform="translate(0 4.235)"/><path class="b" d="M11.312,8.795a.881.881,0,0,0-.417-.266,1,1,0,0,0-.863.3c-.1.089-.238.207-.342.311a2.908,2.908,0,0,1-2.054.829H7.546a2.754,2.754,0,0,1,0-5.508h.089a2.972,2.972,0,0,1,2.054.829,3.256,3.256,0,0,0,.342.311,1.021,1.021,0,0,0,.863.3.842.842,0,0,0,.417-.267l1.816-2.265a.76.76,0,0,0,.238-.74,1.158,1.158,0,0,0-.253-.385,4.859,4.859,0,0,0-1-.829A8.533,8.533,0,0,0,7.353,0,7.1,7.1,0,0,0,0,7.2v.03a7.086,7.086,0,0,0,7.353,7.2,8.605,8.605,0,0,0,4.763-1.407,5.385,5.385,0,0,0,1-.829.833.833,0,0,0,.253-.385.8.8,0,0,0-.238-.74Z" transform="translate(30.005 4.235)"/></g></g></svg>